<svg width="150" height="150" viewBox="0 0 150 150" fill="none" xmlns="http://www.w3.org/2000/svg">
<path d="M144.644 34.8851C145.059 35.6046 145.463 36.3312 145.857 37.0645C145.142 36.5971 144.665 35.7975 144.644 34.8851Z" fill="#FF3333"/>
<path d="M129.977 16.3926C131.225 17.5639 132.436 18.7747 133.607 20.0229C133.154 20.86 132.269 21.4286 131.25 21.4286C129.771 21.4286 128.571 20.2293 128.571 18.75C128.571 17.7314 129.14 16.8456 129.977 16.3926Z" fill="#FF3333"/>
<path d="M112.935 4.14313C113.669 4.53657 114.395 4.94107 115.115 5.3564C114.202 5.3351 113.403 4.85758 112.935 4.14313Z" fill="#FF3333"/>
<path d="M34.8851 5.3564C35.6046 4.94107 36.3312 4.53657 37.0645 4.14313C36.5971 4.85758 35.7975 5.3351 34.8851 5.3564Z" fill="#FF3333"/>
<path d="M16.3926 20.0229C17.5639 18.7747 18.7747 17.5639 20.0229 16.3926C20.86 16.8456 21.4286 17.7314 21.4286 18.75C21.4286 20.2293 20.2293 21.4286 18.75 21.4286C17.7314 21.4286 16.8456 20.86 16.3926 20.0229Z" fill="#FF3333"/>
<path d="M4.14313 37.0645C4.53657 36.3312 4.94107 35.6046 5.3564 34.8851C5.3351 35.7975 4.85758 36.5971 4.14313 37.0645Z" fill="#FF3333"/>
<path d="M145.857 112.935C145.463 113.669 145.059 114.395 144.644 115.115C144.665 114.202 145.142 113.403 145.857 112.935Z" fill="#FF3333"/>
<path d="M133.607 129.977C133.154 129.14 132.269 128.571 131.25 128.571C129.771 128.571 128.571 129.771 128.571 131.25C128.571 132.269 129.14 133.154 129.977 133.607C131.225 132.436 132.436 131.225 133.607 129.977Z" fill="#FF3333"/>
<path d="M115.115 144.644C114.202 144.665 113.403 145.142 112.935 145.857C113.669 145.463 114.395 145.059 115.115 144.644Z" fill="#FF3333"/>
<path d="M37.0645 145.857C36.5971 145.142 35.7975 144.665 34.8851 144.644C35.6046 145.059 36.3312 145.463 37.0645 145.857Z" fill="#FF3333"/>
<path d="M20.0229 133.607C20.86 133.154 21.4286 132.269 21.4286 131.25C21.4286 129.771 20.2293 128.571 18.75 128.571C17.7314 128.571 16.8456 129.14 16.3926 129.977C17.5639 131.225 18.7747 132.436 20.0229 133.607Z" fill="#FF3333"/>
<path d="M5.3564 115.115C5.3351 114.202 4.85758 113.403 4.14313 112.935C4.53657 113.669 4.94107 114.395 5.3564 115.115Z" fill="#FF3333"/>
<path d="M53.5714 2.67857C53.5714 4.15791 52.3722 5.35714 50.8929 5.35714C49.4135 5.35714 48.2143 4.15791 48.2143 2.67857C48.2143 1.19924 49.4135 0 50.8929 0C52.3722 0 53.5714 1.19924 53.5714 2.67857Z" fill="#FF3333"/>
<path d="M69.6429 2.67857C69.6429 4.15791 68.4436 5.35714 66.9643 5.35714C65.485 5.35714 64.2857 4.15791 64.2857 2.67857C64.2857 1.19924 65.485 0 66.9643 0C68.4436 0 69.6429 1.19924 69.6429 2.67857Z" fill="#FF3333"/>
<path d="M85.7143 2.67857C85.7143 4.15791 84.515 5.35714 83.0357 5.35714C81.5564 5.35714 80.3571 4.15791 80.3571 2.67857C80.3571 1.19924 81.5564 0 83.0357 0C84.515 0 85.7143 1.19924 85.7143 2.67857Z" fill="#FF3333"/>
<path d="M101.786 2.67857C101.786 4.15791 100.586 5.35714 99.1071 5.35714C97.6278 5.35714 96.4286 4.15791 96.4286 2.67857C96.4286 1.19924 97.6278 0 99.1071 0C100.586 0 101.786 1.19924 101.786 2.67857Z" fill="#FF3333"/>
<path d="M37.5 18.75C37.5 20.2293 36.3008 21.4286 34.8214 21.4286C33.3421 21.4286 32.1429 20.2293 32.1429 18.75C32.1429 17.2707 33.3421 16.0714 34.8214 16.0714C36.3008 16.0714 37.5 17.2707 37.5 18.75Z" fill="#FF3333"/>
<path d="M53.5714 18.75C53.5714 20.2293 52.3722 21.4286 50.8929 21.4286C49.4135 21.4286 48.2143 20.2293 48.2143 18.75C48.2143 17.2707 49.4135 16.0714 50.8929 16.0714C52.3722 16.0714 53.5714 17.2707 53.5714 18.75Z" fill="#FF3333"/>
<path d="M69.6429 18.75C69.6429 20.2293 68.4436 21.4286 66.9643 21.4286C65.485 21.4286 64.2857 20.2293 64.2857 18.75C64.2857 17.2707 65.485 16.0714 66.9643 16.0714C68.4436 16.0714 69.6429 17.2707 69.6429 18.75Z" fill="#FF3333"/>
<path d="M85.7143 18.75C85.7143 20.2293 84.515 21.4286 83.0357 21.4286C81.5564 21.4286 80.3571 20.2293 80.3571 18.75C80.3571 17.2707 81.5564 16.0714 83.0357 16.0714C84.515 16.0714 85.7143 17.2707 85.7143 18.75Z" fill="#FF3333"/>
<path d="M101.786 18.75C101.786 20.2293 100.586 21.4286 99.1071 21.4286C97.6278 21.4286 96.4286 20.2293 96.4286 18.75C96.4286 17.2707 97.6278 16.0714 99.1071 16.0714C100.586 16.0714 101.786 17.2707 101.786 18.75Z" fill="#FF3333"/>
<path d="M117.857 18.75C117.857 20.2293 116.658 21.4286 115.179 21.4286C113.699 21.4286 112.5 20.2293 112.5 18.75C112.5 17.2707 113.699 16.0714 115.179 16.0714C116.658 16.0714 117.857 17.2707 117.857 18.75Z" fill="#FF3333"/>
<path d="M21.4286 34.8214C21.4286 36.3008 20.2293 37.5 18.75 37.5C17.2707 37.5 16.0714 36.3008 16.0714 34.8214C16.0714 33.3421 17.2707 32.1429 18.75 32.1429C20.2293 32.1429 21.4286 33.3421 21.4286 34.8214Z" fill="#FF3333"/>
<path d="M37.5 34.8214C37.5 36.3008 36.3008 37.5 34.8214 37.5C33.3421 37.5 32.1429 36.3008 32.1429 34.8214C32.1429 33.3421 33.3421 32.1429 34.8214 32.1429C36.3008 32.1429 37.5 33.3421 37.5 34.8214Z" fill="#FF3333"/>
<path d="M53.5714 34.8214C53.5714 36.3008 52.3722 37.5 50.8929 37.5C49.4135 37.5 48.2143 36.3008 48.2143 34.8214C48.2143 33.3421 49.4135 32.1429 50.8929 32.1429C52.3722 32.1429 53.5714 33.3421 53.5714 34.8214Z" fill="#FF3333"/>
<path d="M69.6429 34.8214C69.6429 36.3008 68.4436 37.5 66.9643 37.5C65.485 37.5 64.2857 36.3008 64.2857 34.8214C64.2857 33.3421 65.485 32.1429 66.9643 32.1429C68.4436 32.1429 69.6429 33.3421 69.6429 34.8214Z" fill="#FF3333"/>
<path d="M85.7143 34.8214C85.7143 36.3008 84.515 37.5 83.0357 37.5C81.5564 37.5 80.3571 36.3008 80.3571 34.8214C80.3571 33.3421 81.5564 32.1429 83.0357 32.1429C84.515 32.1429 85.7143 33.3421 85.7143 34.8214Z" fill="#FF3333"/>
<path d="M101.786 34.8214C101.786 36.3008 100.586 37.5 99.1071 37.5C97.6278 37.5 96.4286 36.3008 96.4286 34.8214C96.4286 33.3421 97.6278 32.1429 99.1071 32.1429C100.586 32.1429 101.786 33.3421 101.786 34.8214Z" fill="#FF3333"/>
<path d="M117.857 34.8214C117.857 36.3008 116.658 37.5 115.179 37.5C113.699 37.5 112.5 36.3008 112.5 34.8214C112.5 33.3421 113.699 32.1429 115.179 32.1429C116.658 32.1429 117.857 33.3421 117.857 34.8214Z" fill="#FF3333"/>
<path d="M133.929 34.8214C133.929 36.3008 132.729 37.5 131.25 37.5C129.771 37.5 128.571 36.3008 128.571 34.8214C128.571 33.3421 129.771 32.1429 131.25 32.1429C132.729 32.1429 133.929 33.3421 133.929 34.8214Z" fill="#FF3333"/>
<path d="M5.35714 50.8929C5.35714 52.3722 4.15791 53.5714 2.67857 53.5714C1.19924 53.5714 0 52.3722 0 50.8929C0 49.4135 1.19924 48.2143 2.67857 48.2143C4.15791 48.2143 5.35714 49.4135 5.35714 50.8929Z" fill="#FF3333"/>
<path d="M21.4286 50.8929C21.4286 52.3722 20.2293 53.5714 18.75 53.5714C17.2707 53.5714 16.0714 52.3722 16.0714 50.8929C16.0714 49.4135 17.2707 48.2143 18.75 48.2143C20.2293 48.2143 21.4286 49.4135 21.4286 50.8929Z" fill="#FF3333"/>
<path d="M37.5 50.8929C37.5 52.3722 36.3008 53.5714 34.8214 53.5714C33.3421 53.5714 32.1429 52.3722 32.1429 50.8929C32.1429 49.4135 33.3421 48.2143 34.8214 48.2143C36.3008 48.2143 37.5 49.4135 37.5 50.8929Z" fill="#FF3333"/>
<path d="M53.5714 50.8929C53.5714 52.3722 52.3722 53.5714 50.8929 53.5714C49.4135 53.5714 48.2143 52.3722 48.2143 50.8929C48.2143 49.4135 49.4135 48.2143 50.8929 48.2143C52.3722 48.2143 53.5714 49.4135 53.5714 50.8929Z" fill="#FF3333"/>
<path d="M69.6429 50.8929C69.6429 52.3722 68.4436 53.5714 66.9643 53.5714C65.485 53.5714 64.2857 52.3722 64.2857 50.8929C64.2857 49.4135 65.485 48.2143 66.9643 48.2143C68.4436 48.2143 69.6429 49.4135 69.6429 50.8929Z" fill="#FF3333"/>
<path d="M85.7143 50.8929C85.7143 52.3722 84.515 53.5714 83.0357 53.5714C81.5564 53.5714 80.3571 52.3722 80.3571 50.8929C80.3571 49.4135 81.5564 48.2143 83.0357 48.2143C84.515 48.2143 85.7143 49.4135 85.7143 50.8929Z" fill="#FF3333"/>
<path d="M101.786 50.8929C101.786 52.3722 100.586 53.5714 99.1071 53.5714C97.6278 53.5714 96.4286 52.3722 96.4286 50.8929C96.4286 49.4135 97.6278 48.2143 99.1071 48.2143C100.586 48.2143 101.786 49.4135 101.786 50.8929Z" fill="#FF3333"/>
<path d="M117.857 50.8929C117.857 52.3722 116.658 53.5714 115.179 53.5714C113.699 53.5714 112.5 52.3722 112.5 50.8929C112.5 49.4135 113.699 48.2143 115.179 48.2143C116.658 48.2143 117.857 49.4135 117.857 50.8929Z" fill="#FF3333"/>
<path d="M133.929 50.8929C133.929 52.3722 132.729 53.5714 131.25 53.5714C129.771 53.5714 128.571 52.3722 128.571 50.8929C128.571 49.4135 129.771 48.2143 131.25 48.2143C132.729 48.2143 133.929 49.4135 133.929 50.8929Z" fill="#FF3333"/>
<path d="M150 50.8929C150 52.3722 148.801 53.5714 147.321 53.5714C145.842 53.5714 144.643 52.3722 144.643 50.8929C144.643 49.4135 145.842 48.2143 147.321 48.2143C148.801 48.2143 150 49.4135 150 50.8929Z" fill="#FF3333"/>
<path d="M5.35714 66.9643C5.35714 68.4436 4.15791 69.6429 2.67857 69.6429C1.19924 69.6429 0 68.4436 0 66.9643C0 65.485 1.19924 64.2857 2.67857 64.2857C4.15791 64.2857 5.35714 65.485 5.35714 66.9643Z" fill="#FF3333"/>
<path d="M21.4286 66.9643C21.4286 68.4436 20.2293 69.6429 18.75 69.6429C17.2707 69.6429 16.0714 68.4436 16.0714 66.9643C16.0714 65.485 17.2707 64.2857 18.75 64.2857C20.2293 64.2857 21.4286 65.485 21.4286 66.9643Z" fill="#FF3333"/>
<path d="M37.5 66.9643C37.5 68.4436 36.3008 69.6429 34.8214 69.6429C33.3421 69.6429 32.1429 68.4436 32.1429 66.9643C32.1429 65.485 33.3421 64.2857 34.8214 64.2857C36.3008 64.2857 37.5 65.485 37.5 66.9643Z" fill="#FF3333"/>
<path d="M53.5714 66.9643C53.5714 68.4436 52.3722 69.6429 50.8929 69.6429C49.4135 69.6429 48.2143 68.4436 48.2143 66.9643C48.2143 65.485 49.4135 64.2857 50.8929 64.2857C52.3722 64.2857 53.5714 65.485 53.5714 66.9643Z" fill="#FF3333"/>
<path d="M69.6429 66.9643C69.6429 68.4436 68.4436 69.6429 66.9643 69.6429C65.485 69.6429 64.2857 68.4436 64.2857 66.9643C64.2857 65.485 65.485 64.2857 66.9643 64.2857C68.4436 64.2857 69.6429 65.485 69.6429 66.9643Z" fill="#FF3333"/>
<path d="M85.7143 66.9643C85.7143 68.4436 84.515 69.6429 83.0357 69.6429C81.5564 69.6429 80.3571 68.4436 80.3571 66.9643C80.3571 65.485 81.5564 64.2857 83.0357 64.2857C84.515 64.2857 85.7143 65.485 85.7143 66.9643Z" fill="#FF3333"/>
<path d="M101.786 66.9643C101.786 68.4436 100.586 69.6429 99.1071 69.6429C97.6278 69.6429 96.4286 68.4436 96.4286 66.9643C96.4286 65.485 97.6278 64.2857 99.1071 64.2857C100.586 64.2857 101.786 65.485 101.786 66.9643Z" fill="#FF3333"/>
<path d="M117.857 66.9643C117.857 68.4436 116.658 69.6429 115.179 69.6429C113.699 69.6429 112.5 68.4436 112.5 66.9643C112.5 65.485 113.699 64.2857 115.179 64.2857C116.658 64.2857 117.857 65.485 117.857 66.9643Z" fill="#FF3333"/>
<path d="M133.929 66.9643C133.929 68.4436 132.729 69.6429 131.25 69.6429C129.771 69.6429 128.571 68.4436 128.571 66.9643C128.571 65.485 129.771 64.2857 131.25 64.2857C132.729 64.2857 133.929 65.485 133.929 66.9643Z" fill="#FF3333"/>
<path d="M150 66.9643C150 68.4436 148.801 69.6429 147.321 69.6429C145.842 69.6429 144.643 68.4436 144.643 66.9643C144.643 65.485 145.842 64.2857 147.321 64.2857C148.801 64.2857 150 65.485 150 66.9643Z" fill="#FF3333"/>
<path d="M5.35714 83.0357C5.35714 84.515 4.15791 85.7143 2.67857 85.7143C1.19924 85.7143 0 84.515 0 83.0357C0 81.5564 1.19924 80.3571 2.67857 80.3571C4.15791 80.3571 5.35714 81.5564 5.35714 83.0357Z" fill="#FF3333"/>
<path d="M21.4286 83.0357C21.4286 84.515 20.2293 85.7143 18.75 85.7143C17.2707 85.7143 16.0714 84.515 16.0714 83.0357C16.0714 81.5564 17.2707 80.3571 18.75 80.3571C20.2293 80.3571 21.4286 81.5564 21.4286 83.0357Z" fill="#FF3333"/>
<path d="M37.5 83.0357C37.5 84.515 36.3008 85.7143 34.8214 85.7143C33.3421 85.7143 32.1429 84.515 32.1429 83.0357C32.1429 81.5564 33.3421 80.3571 34.8214 80.3571C36.3008 80.3571 37.5 81.5564 37.5 83.0357Z" fill="#FF3333"/>
<path d="M53.5714 83.0357C53.5714 84.515 52.3722 85.7143 50.8929 85.7143C49.4135 85.7143 48.2143 84.515 48.2143 83.0357C48.2143 81.5564 49.4135 80.3571 50.8929 80.3571C52.3722 80.3571 53.5714 81.5564 53.5714 83.0357Z" fill="#FF3333"/>
<path d="M69.6429 83.0357C69.6429 84.515 68.4436 85.7143 66.9643 85.7143C65.485 85.7143 64.2857 84.515 64.2857 83.0357C64.2857 81.5564 65.485 80.3571 66.9643 80.3571C68.4436 80.3571 69.6429 81.5564 69.6429 83.0357Z" fill="#FF3333"/>
<path d="M85.7143 83.0357C85.7143 84.515 84.515 85.7143 83.0357 85.7143C81.5564 85.7143 80.3571 84.515 80.3571 83.0357C80.3571 81.5564 81.5564 80.3571 83.0357 80.3571C84.515 80.3571 85.7143 81.5564 85.7143 83.0357Z" fill="#FF3333"/>
<path d="M101.786 83.0357C101.786 84.515 100.586 85.7143 99.1071 85.7143C97.6278 85.7143 96.4286 84.515 96.4286 83.0357C96.4286 81.5564 97.6278 80.3571 99.1071 80.3571C100.586 80.3571 101.786 81.5564 101.786 83.0357Z" fill="#FF3333"/>
<path d="M117.857 83.0357C117.857 84.515 116.658 85.7143 115.179 85.7143C113.699 85.7143 112.5 84.515 112.5 83.0357C112.5 81.5564 113.699 80.3571 115.179 80.3571C116.658 80.3571 117.857 81.5564 117.857 83.0357Z" fill="#FF3333"/>
<path d="M133.929 83.0357C133.929 84.515 132.729 85.7143 131.25 85.7143C129.771 85.7143 128.571 84.515 128.571 83.0357C128.571 81.5564 129.771 80.3571 131.25 80.3571C132.729 80.3571 133.929 81.5564 133.929 83.0357Z" fill="#FF3333"/>
<path d="M150 83.0357C150 84.515 148.801 85.7143 147.321 85.7143C145.842 85.7143 144.643 84.515 144.643 83.0357C144.643 81.5564 145.842 80.3571 147.321 80.3571C148.801 80.3571 150 81.5564 150 83.0357Z" fill="#FF3333"/>
<path d="M5.35714 99.1071C5.35714 100.586 4.15791 101.786 2.67857 101.786C1.19924 101.786 0 100.586 0 99.1071C0 97.6278 1.19924 96.4286 2.67857 96.4286C4.15791 96.4286 5.35714 97.6278 5.35714 99.1071Z" fill="#FF3333"/>
<path d="M21.4286 99.1071C21.4286 100.586 20.2293 101.786 18.75 101.786C17.2707 101.786 16.0714 100.586 16.0714 99.1071C16.0714 97.6278 17.2707 96.4286 18.75 96.4286C20.2293 96.4286 21.4286 97.6278 21.4286 99.1071Z" fill="#FF3333"/>
<path d="M37.5 99.1071C37.5 100.586 36.3008 101.786 34.8214 101.786C33.3421 101.786 32.1429 100.586 32.1429 99.1071C32.1429 97.6278 33.3421 96.4286 34.8214 96.4286C36.3008 96.4286 37.5 97.6278 37.5 99.1071Z" fill="#FF3333"/>
<path d="M53.5714 99.1071C53.5714 100.586 52.3722 101.786 50.8929 101.786C49.4135 101.786 48.2143 100.586 48.2143 99.1071C48.2143 97.6278 49.4135 96.4286 50.8929 96.4286C52.3722 96.4286 53.5714 97.6278 53.5714 99.1071Z" fill="#FF3333"/>
<path d="M69.6429 99.1071C69.6429 100.586 68.4436 101.786 66.9643 101.786C65.485 101.786 64.2857 100.586 64.2857 99.1071C64.2857 97.6278 65.485 96.4286 66.9643 96.4286C68.4436 96.4286 69.6429 97.6278 69.6429 99.1071Z" fill="#FF3333"/>
<path d="M85.7143 99.1071C85.7143 100.586 84.515 101.786 83.0357 101.786C81.5564 101.786 80.3571 100.586 80.3571 99.1071C80.3571 97.6278 81.5564 96.4286 83.0357 96.4286C84.515 96.4286 85.7143 97.6278 85.7143 99.1071Z" fill="#FF3333"/>
<path d="M101.786 99.1071C101.786 100.586 100.586 101.786 99.1071 101.786C97.6278 101.786 96.4286 100.586 96.4286 99.1071C96.4286 97.6278 97.6278 96.4286 99.1071 96.4286C100.586 96.4286 101.786 97.6278 101.786 99.1071Z" fill="#FF3333"/>
<path d="M117.857 99.1071C117.857 100.586 116.658 101.786 115.179 101.786C113.699 101.786 112.5 100.586 112.5 99.1071C112.5 97.6278 113.699 96.4286 115.179 96.4286C116.658 96.4286 117.857 97.6278 117.857 99.1071Z" fill="#FF3333"/>
<path d="M133.929 99.1071C133.929 100.586 132.729 101.786 131.25 101.786C129.771 101.786 128.571 100.586 128.571 99.1071C128.571 97.6278 129.771 96.4286 131.25 96.4286C132.729 96.4286 133.929 97.6278 133.929 99.1071Z" fill="#FF3333"/>
<path d="M150 99.1071C150 100.586 148.801 101.786 147.321 101.786C145.842 101.786 144.643 100.586 144.643 99.1071C144.643 97.6278 145.842 96.4286 147.321 96.4286C148.801 96.4286 150 97.6278 150 99.1071Z" fill="#FF3333"/>
<path d="M21.4286 115.179C21.4286 116.658 20.2293 117.857 18.75 117.857C17.2707 117.857 16.0714 116.658 16.0714 115.179C16.0714 113.699 17.2707 112.5 18.75 112.5C20.2293 112.5 21.4286 113.699 21.4286 115.179Z" fill="#FF3333"/>
<path d="M37.5 115.179C37.5 116.658 36.3008 117.857 34.8214 117.857C33.3421 117.857 32.1429 116.658 32.1429 115.179C32.1429 113.699 33.3421 112.5 34.8214 112.5C36.3008 112.5 37.5 113.699 37.5 115.179Z" fill="#FF3333"/>
<path d="M53.5714 115.179C53.5714 116.658 52.3722 117.857 50.8929 117.857C49.4135 117.857 48.2143 116.658 48.2143 115.179C48.2143 113.699 49.4135 112.5 50.8929 112.5C52.3722 112.5 53.5714 113.699 53.5714 115.179Z" fill="#FF3333"/>
<path d="M69.6429 115.179C69.6429 116.658 68.4436 117.857 66.9643 117.857C65.485 117.857 64.2857 116.658 64.2857 115.179C64.2857 113.699 65.485 112.5 66.9643 112.5C68.4436 112.5 69.6429 113.699 69.6429 115.179Z" fill="#FF3333"/>
<path d="M85.7143 115.179C85.7143 116.658 84.515 117.857 83.0357 117.857C81.5564 117.857 80.3571 116.658 80.3571 115.179C80.3571 113.699 81.5564 112.5 83.0357 112.5C84.515 112.5 85.7143 113.699 85.7143 115.179Z" fill="#FF3333"/>
<path d="M101.786 115.179C101.786 116.658 100.586 117.857 99.1071 117.857C97.6278 117.857 96.4286 116.658 96.4286 115.179C96.4286 113.699 97.6278 112.5 99.1071 112.5C100.586 112.5 101.786 113.699 101.786 115.179Z" fill="#FF3333"/>
<path d="M117.857 115.179C117.857 116.658 116.658 117.857 115.179 117.857C113.699 117.857 112.5 116.658 112.5 115.179C112.5 113.699 113.699 112.5 115.179 112.5C116.658 112.5 117.857 113.699 117.857 115.179Z" fill="#FF3333"/>
<path d="M133.929 115.179C133.929 116.658 132.729 117.857 131.25 117.857C129.771 117.857 128.571 116.658 128.571 115.179C128.571 113.699 129.771 112.5 131.25 112.5C132.729 112.5 133.929 113.699 133.929 115.179Z" fill="#FF3333"/>
<path d="M37.5 131.25C37.5 132.729 36.3008 133.929 34.8214 133.929C33.3421 133.929 32.1429 132.729 32.1429 131.25C32.1429 129.771 33.3421 128.571 34.8214 128.571C36.3008 128.571 37.5 129.771 37.5 131.25Z" fill="#FF3333"/>
<path d="M53.5714 131.25C53.5714 132.729 52.3722 133.929 50.8929 133.929C49.4135 133.929 48.2143 132.729 48.2143 131.25C48.2143 129.771 49.4135 128.571 50.8929 128.571C52.3722 128.571 53.5714 129.771 53.5714 131.25Z" fill="#FF3333"/>
<path d="M69.6429 131.25C69.6429 132.729 68.4436 133.929 66.9643 133.929C65.485 133.929 64.2857 132.729 64.2857 131.25C64.2857 129.771 65.485 128.571 66.9643 128.571C68.4436 128.571 69.6429 129.771 69.6429 131.25Z" fill="#FF3333"/>
<path d="M85.7143 131.25C85.7143 132.729 84.515 133.929 83.0357 133.929C81.5564 133.929 80.3571 132.729 80.3571 131.25C80.3571 129.771 81.5564 128.571 83.0357 128.571C84.515 128.571 85.7143 129.771 85.7143 131.25Z" fill="#FF3333"/>
<path d="M101.786 131.25C101.786 132.729 100.586 133.929 99.1071 133.929C97.6278 133.929 96.4286 132.729 96.4286 131.25C96.4286 129.771 97.6278 128.571 99.1071 128.571C100.586 128.571 101.786 129.771 101.786 131.25Z" fill="#FF3333"/>
<path d="M117.857 131.25C117.857 132.729 116.658 133.929 115.179 133.929C113.699 133.929 112.5 132.729 112.5 131.25C112.5 129.771 113.699 128.571 115.179 128.571C116.658 128.571 117.857 129.771 117.857 131.25Z" fill="#FF3333"/>
<path d="M53.5714 147.321C53.5714 148.801 52.3722 150 50.8929 150C49.4135 150 48.2143 148.801 48.2143 147.321C48.2143 145.842 49.4135 144.643 50.8929 144.643C52.3722 144.643 53.5714 145.842 53.5714 147.321Z" fill="#FF3333"/>
<path d="M69.6429 147.321C69.6429 148.801 68.4436 150 66.9643 150C65.485 150 64.2857 148.801 64.2857 147.321C64.2857 145.842 65.485 144.643 66.9643 144.643C68.4436 144.643 69.6429 145.842 69.6429 147.321Z" fill="#FF3333"/>
<path d="M85.7143 147.321C85.7143 148.801 84.515 150 83.0357 150C81.5564 150 80.3571 148.801 80.3571 147.321C80.3571 145.842 81.5564 144.643 83.0357 144.643C84.515 144.643 85.7143 145.842 85.7143 147.321Z" fill="#FF3333"/>
<path d="M101.786 147.321C101.786 148.801 100.586 150 99.1071 150C97.6278 150 96.4286 148.801 96.4286 147.321C96.4286 145.842 97.6278 144.643 99.1071 144.643C100.586 144.643 101.786 145.842 101.786 147.321Z" fill="#FF3333"/>
</svg>
