<svg width="75" height="75" viewBox="0 0 75 75" fill="none" xmlns="http://www.w3.org/2000/svg">
<path d="M17.1875 7.03125C16.7206 7.03095 16.2642 7.17015 15.8768 7.43099C15.4895 7.69184 15.1889 8.06244 15.0137 8.49526C14.8384 8.92809 14.7964 9.40341 14.8931 9.86026C14.9898 10.3171 15.2207 10.7347 15.5563 11.0594L31.7125 26.7188H17.1875C16.5659 26.7188 15.9698 26.9657 15.5303 27.4052C15.0907 27.8448 14.8438 28.4409 14.8438 29.0625V48.75C14.8438 49.4844 15.1813 50.1406 15.7125 50.5719L36.0032 67.4281C36.3456 67.7124 36.7619 67.8932 37.2034 67.9496C37.6449 68.0059 38.0932 67.9354 38.4961 67.7462C38.899 67.5571 39.2396 67.2572 39.4783 66.8815C39.717 66.5059 39.8437 66.07 39.8438 65.625V51.0938H57.8125C58.2795 51.0941 58.7359 50.9549 59.1233 50.694C59.5106 50.4332 59.8112 50.0626 59.9864 49.6297C60.1617 49.1969 60.2037 48.7216 60.107 48.2647C60.0103 47.8079 59.7794 47.3903 59.4438 47.0656L43.2875 31.4062H57.8125C58.4342 31.4062 59.0303 31.1593 59.4698 30.7198C59.9094 30.2802 60.1563 29.6841 60.1563 29.0625V9.375C60.1563 8.7534 59.9094 8.15726 59.4698 7.71772C59.0303 7.27818 58.4342 7.03125 57.8125 7.03125H17.1875Z" fill="black"/>
</svg>
