<svg width="75" height="75" viewBox="0 0 75 75" fill="none" xmlns="http://www.w3.org/2000/svg">
<path d="M4.6875 4.6875H70.3125V70.3125H4.6875V4.6875Z" fill="#F5DE19"/>
<path d="M48.7711 55.9573C49.3311 57.0923 50.2001 58.0464 51.278 58.7097C52.356 59.3731 53.5992 59.7188 54.8649 59.7073C57.4195 59.7073 59.0531 58.4299 59.0531 56.6604C59.0531 54.551 57.375 53.7963 54.5625 52.5659L53.0203 51.9049C48.5672 50.0088 45.6141 47.6346 45.6141 42.6143C45.6141 37.9901 49.1297 34.4674 54.6445 34.4674C56.4297 34.3388 58.2133 34.7385 59.7729 35.6167C61.3325 36.4948 62.5991 37.8126 63.4149 39.4057L58.5938 42.4877C58.2795 41.6979 57.7326 41.0222 57.0257 40.5501C56.3188 40.0779 55.4852 39.8317 54.6352 39.844C54.2643 39.8069 53.8898 39.8474 53.5354 39.963C53.1811 40.0786 52.8547 40.2668 52.5771 40.5155C52.2995 40.7642 52.0767 41.068 51.923 41.4076C51.7693 41.7472 51.6881 42.115 51.6844 42.4877C51.6844 44.337 52.8305 45.087 55.4766 46.2377L57.0188 46.8987C62.2594 49.1463 65.2219 51.4362 65.2219 56.5854C65.2219 62.1377 60.8602 65.1799 55.0031 65.1799C52.7213 65.3238 50.4464 64.8051 48.4526 63.6861C46.4587 62.5671 44.8308 60.8956 43.7649 58.8729L48.7711 55.9573ZM26.9859 56.4916C27.9539 58.2096 28.8352 59.6627 30.9539 59.6627C32.9789 59.6627 34.2586 58.8705 34.2586 55.7885V34.819H40.425V55.8705C40.425 62.2549 36.675 65.1612 31.2164 65.1612C29.2869 65.2666 27.3707 64.7858 25.7196 63.7818C24.0685 62.7779 22.7598 61.2978 21.9656 59.5362L26.9859 56.4916Z" fill="black"/>
</svg>
