<svg width="84" height="75" viewBox="0 0 84 75" fill="none" xmlns="http://www.w3.org/2000/svg">
<g clip-path="url(#clip0_78_366)">
<path d="M69.0647 24.2842C68.1708 23.9767 67.2692 23.6919 66.361 23.4299C66.5136 22.8049 66.654 22.1874 66.7787 21.5809C68.8255 11.62 67.4874 3.59534 62.917 0.953232C58.5349 -1.57966 51.3683 1.06146 44.1305 7.37626C43.4172 7.9997 42.7197 8.64113 42.0387 9.29994C41.5828 8.86188 41.1189 8.43231 40.6471 8.01146C33.0615 1.25948 25.4582 -1.58624 20.8927 1.06343C16.5145 3.60422 15.2181 11.148 17.0609 20.5881C17.2442 21.523 17.4512 22.4532 17.6817 23.3776C16.6054 23.6842 15.5669 24.0105 14.573 24.3578C5.67951 27.4664 0 32.3378 0 37.3907C0 42.6095 6.09722 47.844 15.3602 51.018C16.1112 51.2742 16.8684 51.5117 17.6311 51.7302C17.3835 52.7258 17.1636 53.7282 16.9716 54.7361C15.2148 64.0124 16.5867 71.3779 20.9531 73.9026C25.4628 76.5098 33.032 73.8302 40.402 67.3713C40.9996 66.8462 41.5841 66.3062 42.1549 65.7519C42.8923 66.4653 43.6495 67.1579 44.4255 67.8289C51.5648 73.9874 58.6156 76.4743 62.9777 73.9427C67.4832 71.3279 68.9476 63.4154 67.0464 53.7888C66.8967 53.0346 66.7287 52.2841 66.5428 51.5381C67.0743 51.3802 67.596 51.2177 68.1046 51.0486C77.7345 47.8503 84 42.6792 84 37.3907C84 32.3194 78.1371 27.4151 69.0647 24.2842ZM66.9762 47.6342C66.5164 47.7863 66.0461 47.9338 65.5653 48.0766C64.5022 44.7026 63.0676 41.1151 61.3118 37.4082C62.9872 33.7897 64.3666 30.248 65.3999 26.896C66.2593 27.1453 67.093 27.4082 67.8969 27.6855C75.6702 30.3684 80.4116 34.3345 80.4116 37.3907C80.4116 40.646 75.2909 44.872 66.9762 47.6342ZM63.5263 54.4874C64.367 58.744 64.4867 62.5927 63.9299 65.6016C63.4298 68.3052 62.4238 70.1075 61.1796 70.8296C58.5326 72.3657 52.8714 70.369 46.766 65.1019C46.0443 64.478 45.34 63.8341 44.6539 63.171C47.021 60.5759 49.3864 57.5592 51.6951 54.2085C55.756 53.8473 59.5924 53.2565 63.0715 52.4503C63.2433 53.1437 63.3948 53.8228 63.5263 54.4874ZM28.6374 70.5641C26.0512 71.4795 23.9912 71.5059 22.746 70.7861C20.0963 69.2542 18.9948 63.3401 20.4973 55.4072C20.6759 54.4698 20.8804 53.5375 21.1106 52.6115C24.5513 53.3746 28.3598 53.9233 32.4302 54.2542C34.7547 57.5328 37.1884 60.5463 39.6411 63.1851C39.1198 63.6907 38.5863 64.1834 38.0408 64.6628C34.7816 67.5187 31.5158 69.545 28.6374 70.5641ZM16.5211 47.6141C12.4251 46.2105 9.04247 44.3865 6.72394 42.396C4.64034 40.6075 3.5887 38.8315 3.5887 37.3907C3.5887 34.3243 8.14866 30.4131 15.7543 27.7549C16.6773 27.4325 17.6433 27.1282 18.6457 26.8427C19.697 30.2703 21.0758 33.8542 22.7397 37.4782C21.0541 41.1559 19.6557 44.797 18.5942 48.2651C17.898 48.0651 17.2067 47.848 16.5211 47.6141ZM20.5826 19.897C19.004 11.8092 20.0524 5.70817 22.6908 4.17692C25.5009 2.546 31.7149 4.87132 38.2646 10.7016C38.6917 11.0826 39.1119 11.4714 39.525 11.8677C37.0844 14.495 34.673 17.4861 32.3692 20.7453C28.4186 21.1124 24.6369 21.7019 21.1601 22.4917C20.9459 21.6319 20.7533 20.7665 20.5826 19.897ZM56.8165 28.867C55.9953 27.445 55.1436 26.0408 54.262 24.6555C56.9422 24.9953 59.5101 25.4463 61.9215 25.9976C61.1976 28.324 60.2953 30.7559 59.2331 33.2493C58.4568 31.7726 57.6511 30.3115 56.8165 28.867ZM42.0404 14.4391C43.6954 16.2368 45.3531 18.2437 46.9836 20.4213C43.6761 20.2647 40.363 20.264 37.0555 20.4193C38.6876 18.2618 40.3594 16.2575 42.0404 14.4391ZM27.1694 28.8914C26.3453 30.3242 25.5546 31.7762 24.798 33.246C23.7533 30.7615 22.8592 28.3184 22.1291 25.9592C24.5257 25.4217 27.0815 24.9822 29.7445 24.6486C28.8532 26.0424 27.9946 27.4573 27.1694 28.8914ZM29.821 50.3884C27.0697 50.0805 24.4755 49.6638 22.0795 49.1407C22.8211 46.7394 23.7349 44.2444 24.8023 41.7065C25.5618 43.1775 26.3558 44.6303 27.1835 46.0638C28.0347 47.5374 28.916 48.9809 29.821 50.3884ZM42.1395 60.5957C40.4385 58.7562 38.742 56.721 37.0853 54.5322C38.6938 54.5953 40.3335 54.6276 42 54.6276C43.7122 54.6276 45.4046 54.5891 47.0705 54.5147C45.4348 56.743 43.7834 58.7812 42.1395 60.5957ZM59.2669 41.5769C60.3898 44.1427 61.3361 46.6246 62.0875 48.9848C59.6521 49.542 57.0225 49.9907 54.2519 50.324C55.1397 48.913 55.9995 47.4844 56.8306 46.0391C57.6757 44.57 58.488 43.0823 59.2669 41.5769ZM53.7223 44.2417C52.4498 46.4576 51.1058 48.6314 49.6926 50.7598C47.1324 50.9417 44.5666 51.032 42 51.0305C39.3858 51.0305 36.8432 50.949 34.3947 50.7897C32.9444 48.6664 31.5748 46.4887 30.2889 44.2615C29.0088 42.0461 27.8136 39.7827 26.7051 37.4763C27.8108 35.1693 29.0027 32.9048 30.2784 30.6878L30.2781 30.6881C31.5531 28.4704 32.9117 26.302 34.3511 24.1878C36.8491 23.9983 39.4108 23.8996 41.9997 23.8996C44.6004 23.8996 47.1657 23.9993 49.663 24.1901C51.0879 26.3012 52.4378 28.462 53.7105 30.6687C54.9902 32.881 56.1979 35.1344 57.3316 37.4253C56.2095 39.7396 55.0056 42.0132 53.7223 44.2417ZM61.1248 4.06935C63.9375 5.69567 65.0314 12.2539 63.2641 20.8542C63.1508 21.4033 63.025 21.9615 62.8868 22.5286C59.4015 21.722 55.6172 21.1223 51.6551 20.7496C49.347 17.4545 46.9553 14.4588 44.5545 11.8654C45.1837 11.2574 45.8279 10.6651 46.4865 10.0891C52.688 4.67889 58.484 2.54271 61.1248 4.06935ZM42 29.871C46.1426 29.871 49.5009 33.2378 49.5009 37.3907C49.5009 41.5437 46.1426 44.9105 42 44.9105C37.8574 44.9105 34.4991 41.5437 34.4991 37.3907C34.4991 33.2378 37.8574 29.871 42 29.871Z" fill="#00D8FF"/>
</g>
<defs>
<clipPath id="clip0_78_366">
<rect width="84" height="75" fill="white"/>
</clipPath>
</defs>
</svg>
