<svg width="75" height="75" viewBox="0 0 75 75" fill="none" xmlns="http://www.w3.org/2000/svg">
<g clip-path="url(#clip0_78_318)">
<path d="M13.2814 0.9375H61.7186C69.0627 0.9375 75 6.8748 75 14.2189V60.7811C75 68.1252 69.0627 74.0625 61.7186 74.0625H13.2814C5.9373 74.0625 0 68.1252 0 60.7811V14.2189C0 6.8748 5.9373 0.9375 13.2814 0.9375Z" fill="#003662"/>
<path d="M26.8752 19.5312C25.9377 19.5312 25.0002 19.5313 24.0316 19.5629C23.0625 19.5939 22.1561 19.5939 21.3123 19.6256C20.4686 19.6566 19.6875 19.6566 18.9375 19.6877C18.2186 19.7187 17.7188 19.7187 17.1873 19.7187C16.9688 19.7187 16.875 19.8436 16.875 20.0627V52.2189C16.875 52.5002 16.9998 52.6256 17.25 52.6256H23.3127C23.5312 52.5939 23.6877 52.4064 23.6561 52.1879V42.1566C24.2496 42.1566 24.6873 42.1566 25.0002 42.1877C25.3125 42.2188 25.8123 42.2188 26.5623 42.2188C29.1252 42.2188 31.4689 41.9375 33.5936 41.1564C35.625 40.4064 37.3752 39.0939 38.625 37.3438C39.875 35.5938 40.5 33.375 40.5 30.6875C40.5 29.2813 40.2504 27.9377 39.7816 26.6252C39.2849 25.288 38.5069 24.0731 37.5 23.0627C36.3116 21.9082 34.8811 21.0327 33.3123 20.4998C31.5621 19.8436 29.4375 19.5312 26.8752 19.5312ZM27.5725 25.6865C28.6857 25.7076 29.7697 25.9021 30.7811 26.3123C31.6875 26.6562 32.4375 27.2814 32.9689 28.0936C33.4674 28.934 33.7167 29.8989 33.6879 30.8756C33.6879 32.2502 33.375 33.3131 32.7188 34.0941C32.0309 34.8752 31.1561 35.4693 30.1564 35.7506C28.9998 36.1256 27.7811 36.3125 26.5623 36.3125H24.9059C24.5309 36.3125 24.1254 36.2814 23.6877 36.2504V25.7504C23.9062 25.7187 24.3439 25.6877 24.9691 25.7193C25.5627 25.6877 26.2811 25.6877 27.0938 25.6877C27.2539 25.6838 27.4135 25.6834 27.5725 25.6865ZM53.7814 27.282C51.5625 27.282 49.7186 27.6254 48.2502 28.3754C46.9066 29.0006 45.75 30.0002 44.9689 31.25C44.2816 32.4066 43.9061 33.6875 43.9061 35.0316C43.8793 36.1372 44.1263 37.2321 44.625 38.2191C45.2094 39.2701 46.0209 40.1775 47.0004 40.8752C48.3751 41.8154 49.8668 42.5718 51.4377 43.1252C52.9688 43.7187 54 44.1875 54.5004 44.5936C55.0002 45.0002 55.2504 45.4062 55.2504 45.8439C55.2504 46.4064 54.9064 46.9379 54.4066 47.1564C53.8441 47.4377 53.0004 47.5941 51.8127 47.5941C50.5629 47.5941 49.3125 47.4377 48.1248 47.1254C46.7611 46.8208 45.4536 46.3042 44.25 45.5943C44.1562 45.5316 44.0625 45.5006 43.9688 45.5633C43.875 45.6254 43.8439 45.7502 43.8439 45.8439V51.2814C43.8129 51.5316 43.9688 51.7502 44.1879 51.875C45.2013 52.3484 46.2732 52.6848 47.3754 52.8752C48.7816 53.1564 50.1873 53.2812 51.6246 53.2812C53.8746 53.2812 55.7502 52.9379 57.2813 52.2816C58.6875 51.7191 59.9062 50.7506 60.7811 49.5002C61.6004 48.271 62.0255 46.8212 61.9998 45.3441C62.0306 44.2283 61.7838 43.1224 61.2814 42.1256C60.6873 41.0627 59.8436 40.1879 58.8123 39.5316C57.3037 38.5842 55.6884 37.8184 54 37.25C53.246 36.9379 52.5057 36.5939 51.7811 36.2188C51.375 36.0002 51 35.7189 50.7188 35.375C50.5312 35.1248 50.4064 34.8441 50.4064 34.5629C50.4064 34.2816 50.5002 33.9693 50.6561 33.7191C50.8752 33.4068 51.2186 33.1877 51.6246 33.0939C52.2188 32.9381 52.875 32.8437 53.4996 32.8748C54.6873 32.8748 55.8434 33.0312 57 33.2814C58.0629 33.5 59.0625 33.8439 60 34.3443C60.1248 34.4064 60.2812 34.4064 60.5625 34.3443C60.6113 34.3081 60.6509 34.261 60.6781 34.2066C60.7053 34.1522 60.7193 34.0922 60.7189 34.0314V28.9379C60.7189 28.8125 60.6873 28.6877 60.6562 28.5629C60.5936 28.4381 60.4687 28.3127 60.3439 28.2816C59.482 27.9294 58.5789 27.6878 57.6563 27.5627C56.3731 27.3759 55.0781 27.2825 53.7814 27.282Z" fill="#31A8FF"/>
</g>
<defs>
<clipPath id="clip0_78_318">
<rect width="75" height="75" fill="white"/>
</clipPath>
</defs>
</svg>
